<svg xmlns="http://www.w3.org/2000/svg" viewBox="0 0 554.37 451"><defs><style>.cls-1{fill:#1d1b60;}.cls-2{fill:none;stroke:#4338ca;stroke-linecap:round;stroke-linejoin:round;stroke-width:60px;}.cls-3{fill:#4338ca;}</style></defs><title>Fichier 1</title><g id="Calque_2" data-name="Calque 2"><g id="Calque_1-2" data-name="Calque 1"><path class="cls-1" d="M178.27,193.91a39.21,39.21,0,0,1,0,55.38l-110,110a40,40,0,0,1-56.56-56.56l110-110a39.29,39.29,0,0,1,55.93.57Z"/><path class="cls-1" d="M542.65,357.65a40,40,0,0,1-56.56,0L376.65,248.21a39.15,39.15,0,0,1-.3-55.07c.32-.33.64-.65.95-1,15.2-15.86,40.59-15.84,56.12-.31L542.65,301.08A40,40,0,0,1,542.65,357.65Z"/><path class="cls-2" d="M111.67,421,220,312.69a82.22,82.22,0,0,1,116.28,0L443.44,419.85"/><circle class="cls-3" cx="277.44" cy="106.5" r="106.5"/></g></g></svg>